<?xml version="1.0" encoding="UTF-8"?>
<!DOCTYPE svg PUBLIC "-//W3C//DTD SVG 1.1//EN" "http://www.w3.org/Graphics/SVG/1.1/DTD/svg11.dtd">
<!-- Creator: CorelDRAW -->
<svg xmlns="http://www.w3.org/2000/svg" xml:space="preserve" width="6.82666in" height="6.82666in" style="shape-rendering:geometricPrecision; text-rendering:geometricPrecision; image-rendering:optimizeQuality; fill-rule:evenodd; clip-rule:evenodd"
viewBox="0 0 6.82666 6.82666"
 xmlns:xlink="http://www.w3.org/1999/xlink">
 <defs>
  <style type="text/css">
   <![CDATA[
    .fil1 {fill:#FEFEFE;fill-rule:nonzero}
    .fil0 {fill:url(#id0)}
   ]]>
  </style>
  <linearGradient id="id0" gradientUnits="userSpaceOnUse" x1="1.68784" y1="0.424697" x2="5.13882" y2="6.40196">
   <stop offset="0" style="stop-color:#444FF5"/>
   <stop offset="0.490196" style="stop-color:#21BFDB"/>
   <stop offset="1" style="stop-color:#1DABB6"/>
  </linearGradient>
 </defs>
 <g id="Layer_x0020_1">
  <metadata id="CorelCorpID_0Corel-Layer"/>
  <path class="fil0" d="M6.36936 1.70667c0.942567,1.63257 0.383209,3.72013 -1.24937,4.6627 -1.63257,0.942567 -3.72013,0.383209 -4.6627,-1.24937 -0.942567,-1.63257 -0.383209,-3.72013 1.24937,-4.6627 1.63257,-0.942567 3.72013,-0.383209 4.6627,1.24937z"/>
  <g id="_431989144">
   <path id="_431989552" class="fil1" d="M1.59194 1.59194c0.28002,-0.28002 0.647031,-0.420035 1.01404,-0.420035 0.367,0 0.734016,0.140016 1.01404,0.420035 0.28002,0.28002 0.420031,0.647031 0.420031,1.01404 0,0.367 -0.140012,0.734016 -0.420031,1.01404 -0.28002,0.28002 -0.647035,0.420035 -1.01404,0.420035 -0.367004,0 -0.734016,-0.140016 -1.01404,-0.420035 -0.280024,-0.28002 -0.420035,-0.647035 -0.420035,-1.01404 0,-0.367004 0.140012,-0.734016 0.420035,-1.01404zm1.01404 -0.279945c-0.331165,0 -0.662327,0.126331 -0.914988,0.378992 -0.252661,0.252661 -0.378992,0.583823 -0.378992,0.914988 0,0.331161 0.126331,0.662327 0.378992,0.914988 0.252661,0.252657 0.583823,0.378992 0.914988,0.378992 0.331161,0 0.662327,-0.126335 0.914984,-0.378992 0.252661,-0.252661 0.378996,-0.583827 0.378996,-0.914988 0,-0.331165 -0.126335,-0.662327 -0.378996,-0.914988 -0.252657,-0.252661 -0.583823,-0.378992 -0.914984,-0.378992z"/>
   <path id="_431989480" class="fil1" d="M3.72737 4.22157l0.494465 -0.494465 -3.93701e-006 0c0.0273543,-0.0273543 0.0717008,-0.0273543 0.0990551,0l0.000251969 0.000255906 1.3036 1.3036 3.93701e-006 7.87402e-006 3.93701e-006 -3.93701e-006c0.00215354,0.00214961 0.00413386,0.00441339 0.00594882,0.00675591 0.0160394,0.0190157 0.024063,0.0424488 0.024063,0.0657913 0,0.0260748 -0.0100118,0.0522559 -0.0300157,0.0722717l-0.0285945 -0.0284409 -7.87402e-005 2.75591e-005 0.0286929 0.0286732 -0.000287402 0.000279528 -0.448402 0.448406c-0.0200039,0.0200079 -0.046311,0.0300197 -0.0725472,0.0300197 -0.0260748,0 -0.0522638,-0.0100118 -0.0722835,-0.0300197l0.049252 -0.0495236 -0.0495157 0.0495394 -0.000275591 -0.000283465 -1.30359 -1.30359 -3.93701e-006 3.93701e-006c-0.0273504,-0.0273504 -0.0273504,-0.0717008 0,-0.0990551l0.000259843 -0.000251969zm0.543988 -0.34589l-0.395669 0.395669 1.22783 1.22783 0.395669 -0.395669 -1.22783 -1.22783z"/>
   <path id="_431989240" class="fil1" d="M3.63839 3.57307c-0.0273504,-0.0273465 -0.0716969,-0.0273465 -0.0990472,0 -0.0273504,0.0273504 -0.0273504,0.0717008 0,0.0990512l0.41826 0.418264c0.0273504,0.0273504 0.0717008,0.0273504 0.0990512,0 0.0273465,-0.0273504 0.0273465,-0.0716969 0,-0.0990472l-0.418264 -0.418268z"/>
  </g>
 </g>
</svg>
